Coordinates
version=1
nRows=17
nColumns=40
inDegrees=yes

Units are S.I. units (second, meters, Newtons, ...)
If the header above contains a line with 'inDegrees', this indicates whether rotational values are in degrees (yes) or radians (no).

endheader
time	pelvis_tilt	pelvis_list	pelvis_rotation	pelvis_tx	pelvis_ty	pelvis_tz	hip_flexion_r	hip_adduction_r	hip_rotation_r	knee_angle_r	knee_angle_r_beta	ankle_angle_r	subtalar_angle_r	mtp_angle_r	hip_flexion_l	hip_adduction_l	hip_rotation_l	knee_angle_l	knee_angle_l_beta	ankle_angle_l	subtalar_angle_l	mtp_angle_l	lumbar_extension	lumbar_bending	lumbar_rotation	arm_flex_r	arm_add_r	arm_rot_r	elbow_flex_r	pro_sup_r	wrist_flex_r	wrist_dev_r	arm_flex_l	arm_add_l	arm_rot_l	elbow_flex_l	pro_sup_l	wrist_flex_l	wrist_dev_l
      0.75500000	    -19.04800608	     -6.43967517	     -0.34690859	      0.16144391	      0.70881326	     -1.19753558	     61.01417039	    -29.54882560	    -20.16463469	     77.90480060	      1.35969527	     22.88738143	     -8.02662791	      0.00000000	     71.63119655	    -43.98017784	    -10.53170394	     77.45599511	      1.35186214	     23.89165896	     13.39036562	      0.00000000	    -14.26521100	      4.54601788	      2.43766304	     44.81919124	    -15.02424180	     44.81919124	     75.00164263	     44.99999834	      0.00000000	      0.00000000	     44.81919124	    -15.02424180	     44.81919124	     75.00164263	     44.99999834	      0.00000000	      0.00000000
      0.76000000	    -19.11129888	     -6.49428957	     -0.43340980	      0.16126954	      0.70643884	     -1.19753477	     61.36363870	    -29.64242003	    -20.05962786	     78.37566952	      1.36791349	     23.15952536	     -7.61956966	      0.00000000	     72.17201400	    -44.20611665	    -10.19742517	     77.97222455	      1.36087204	     24.11098862	     13.67899366	      0.00000000	    -14.34721103	      4.55189862	      2.41061836	     44.82168959	    -15.02371532	     44.82168959	     75.00158688	     44.99999848	      0.00000000	      0.00000000	     44.82168959	    -15.02371532	     44.82168959	     75.00158688	     44.99999848	      0.00000000	      0.00000000
      0.76500000	    -19.10160946	     -6.47787785	     -0.43983948	      0.16107448	      0.70427502	     -1.19761073	     61.65522307	    -29.84754105	    -19.95761756	     78.84847142	      1.37616544	     23.35737254	     -7.49205040	      0.00000000	     72.54826931	    -44.28495220	     -9.93604825	     78.42368285	      1.36875148	     24.30182721	     13.73273617	      0.00000000	    -14.52062950	      4.53161888	      2.41292251	     44.82387740	    -15.02325849	     44.82387740	     75.00153945	     44.99999860	      0.00000000	      0.00000000	     44.82387740	    -15.02325849	     44.82387740	     75.00153945	     44.99999860	      0.00000000	      0.00000000
      0.77000000	    -19.22956023	     -6.56399574	     -0.42964552	      0.16081142	      0.70168609	     -1.19781712	     62.04054339	    -30.03860942	    -19.96142982	     79.33082937	      1.38458417	     23.59306649	     -7.21814564	      0.00000000	     73.29375150	    -44.35546724	     -9.41576232	     78.97226422	      1.37832603	     24.41011277	     13.70127422	      0.00000000	    -14.51146412	      4.66665809	      2.47231355	     44.82628530	    -15.02275708	     44.82628530	     75.00148761	     44.99999873	      0.00000000	      0.00000000	     44.82628530	    -15.02275708	     44.82628530	     75.00148761	     44.99999873	      0.00000000	      0.00000000
      0.77500000	    -19.13536190	     -6.51447464	     -0.39888628	      0.16063429	      0.69974570	     -1.19801489	     62.24878714	    -30.26705133	    -19.79323561	     79.79030148	      1.39260347	     23.74525868	     -7.19303401	      0.00000000	     73.50215854	    -44.39213732	     -9.26168995	     79.36361834	      1.38515645	     24.58238902	     13.69797077	      0.00000000	    -14.78765886	      4.66870351	      2.39755356	     44.82838245	    -15.02232634	     44.82838245	     75.00144443	     44.99999883	      0.00000000	      0.00000000	     44.82838245	    -15.02232634	     44.82838245	     75.00144443	     44.99999883	      0.00000000	      0.00000000
      0.78000000	    -19.10975038	     -6.48296014	     -0.43849359	      0.16048799	      0.69752922	     -1.19803161	     62.53364569	    -30.47860649	    -19.69652533	     80.24855063	      1.40060143	     23.95603166	     -6.96172401	      0.00000000	     73.85523992	    -44.50634318	     -9.00666012	     79.85154806	      1.39367243	     24.77954046	     13.82554193	      0.00000000	    -14.97425865	      4.56103639	      2.39843147	     44.83049815	    -15.02189474	     44.83049815	     75.00140175	     44.99999892	      0.00000000	      0.00000000	     44.83049815	    -15.02189474	     44.83049815	     75.00140175	     44.99999892	      0.00000000	      0.00000000
      0.78500000	    -18.93177231	     -6.36274661	     -0.40879826	      0.16025184	      0.69572568	     -1.19817580	     62.71229902	    -30.78024010	    -19.52414985	     80.69852779	      1.40845501	     23.92840235	     -7.04501286	      0.00000000	     73.93273055	    -44.51146732	     -8.96166579	     80.26858440	      1.40095108	     24.64740271	     13.23102842	      0.00000000	    -15.36782201	      4.43188009	      2.35793818	     44.83249682	    -15.02149073	     44.83249682	     75.00136257	     44.99999901	      0.00000000	      0.00000000	     44.83249682	    -15.02149073	     44.83249682	     75.00136257	     44.99999901	      0.00000000	      0.00000000
      0.79000000	    -19.06365869	     -6.41849270	     -0.45427266	      0.16017960	      0.69298018	     -1.19821779	     63.14415609	    -30.92650835	    -19.40499543	     81.24331265	      1.41796330	     24.37583558	     -6.52982450	      0.00000000	     74.59210547	    -44.68669577	     -8.52777609	     80.80839775	      1.41037260	     25.12297553	     13.94567479	      0.00000000	    -15.31837761	      4.48553596	      2.36055245	     44.83455131	    -15.02107711	     44.83455131	     75.00132276	     44.99999909	      0.00000000	      0.00000000	     44.83455131	    -15.02107711	     44.83455131	     75.00132276	     44.99999909	      0.00000000	      0.00000000
      0.79500000	    -19.39813113	     -6.69859258	     -0.34818187	      0.15989478	      0.68971030	     -1.19873834	     63.60734951	    -31.15717529	    -19.67344538	     81.74877720	      1.42678532	     24.60726389	     -6.30541052	      0.00000000	     75.92253214	    -44.63915264	     -7.53427372	     81.44472010	      1.42147852	     25.19180463	     13.79135272	      0.00000000	    -15.02206401	      4.89675767	      2.35954200	     44.83710217	    -15.02056206	     44.83710217	     75.00127272	     44.99999920	      0.00000000	      0.00000000	     44.83710217	    -15.02056206	     44.83710217	     75.00127272	     44.99999920	      0.00000000	      0.00000000
      0.80000000	    -19.24835975	     -6.60711938	     -0.35981826	      0.15980260	      0.68782234	     -1.19876498	     63.77401807	    -31.37641900	    -19.48766470	     82.17316153	      1.43419223	     24.79026457	     -6.23587770	      0.00000000	     76.01193028	    -44.72776395	     -7.44403596	     81.84757370	      1.42850965	     25.39052875	     13.89234047	      0.00000000	    -15.35201806	      4.74569242	      2.28961101	     44.83911913	    -15.02016318	     44.83911913	     75.00123575	     44.99999927	      0.00000000	      0.00000000	     44.83911913	    -15.02016318	     44.83911913	     75.00123575	     44.99999927	      0.00000000	      0.00000000
      0.80500000	    -19.17875594	     -6.54108190	     -0.37248407	      0.15972308	      0.68563312	     -1.19882336	     64.04870961	    -31.61068545	    -19.30321764	     82.66083806	      1.44270379	     24.99898101	     -6.01858342	      0.00000000	     76.25892218	    -44.82406643	     -7.28462012	     82.29518450	      1.43632193	     25.56793724	     13.98089699	      0.00000000	    -15.57199849	      4.65971874	      2.24011493	     44.84107429	    -15.01977934	     44.84107429	     75.00120071	     44.99999933	      0.00000000	      0.00000000	     44.84107429	    -15.01977934	     44.84107429	     75.00120071	     44.99999933	      0.00000000	      0.00000000
      0.81000000	    -19.13213799	     -6.47752140	     -0.37563266	      0.15962706	      0.68335768	     -1.19889564	     64.34649576	    -31.85001764	    -19.11878506	     83.14721016	      1.45119258	     25.22348753	     -5.85697980	      0.00000000	     76.55350302	    -44.90238898	     -7.10020926	     82.75460723	      1.44434037	     25.74905164	     14.04109540	      0.00000000	    -15.74717799	      4.58025781	      2.19527787	     44.84300976	    -15.01940213	     44.84300976	     75.00116679	     44.99999939	      0.00000000	      0.00000000	     44.84300976	    -15.01940213	     44.84300976	     75.00116679	     44.99999939	      0.00000000	      0.00000000
      0.81500000	    -19.12991248	     -6.42961300	     -0.38273484	      0.15955466	      0.68095655	     -1.19898344	     64.68466686	    -32.08704610	    -18.94804901	     83.63517500	      1.45970917	     25.45075533	     -5.63755632	      0.00000000	     76.92683669	    -44.98705116	     -6.87556401	     83.23055519	      1.45264723	     25.94809942	     14.16353044	      0.00000000	    -15.85970444	      4.52116518	      2.15230141	     44.84494129	    -15.01902825	     44.84494129	     75.00113364	     44.99999945	      0.00000000	      0.00000000	     44.84494129	    -15.01902825	     44.84494129	     75.00113364	     44.99999945	      0.00000000	      0.00000000
      0.82000000	    -19.13899845	     -6.40246970	     -0.38673576	      0.15947913	      0.67847687	     -1.19907677	     65.04262194	    -32.32009111	    -18.79336222	     84.15253966	      1.46873889	     25.68255161	     -5.44062000	      0.00000000	     77.34921057	    -45.07467046	     -6.61028082	     83.70863662	      1.46099132	     26.12925978	     14.23543395	      0.00000000	    -15.95730686	      4.48722427	      2.10516517	     44.84687597	    -15.01865635	     44.84687597	     75.00110112	     44.99999950	      0.00000000	      0.00000000	     44.84687597	    -15.01865635	     44.84687597	     75.00110112	     44.99999950	      0.00000000	      0.00000000
      0.82500000	    -19.13964059	     -6.36453145	     -0.38253007	      0.15941353	      0.67607092	     -1.19920619	     65.37146811	    -32.56147625	    -18.64304857	     84.62859981	      1.47704771	     25.86084273	     -5.26449906	      0.00000000	     77.74286905	    -45.14445881	     -6.38217441	     84.18366723	      1.46928217	     26.27918777	     14.25869495	      0.00000000	    -16.04874743	      4.45289517	      2.05028247	     44.84878950	    -15.01829121	     44.84878950	     75.00106967	     44.99999955	      0.00000000	      0.00000000	     44.84878950	    -15.01829121	     44.84878950	     75.00106967	     44.99999955	      0.00000000	      0.00000000
      0.83000000	    -19.46239370	     -6.58880889	     -0.28585596	      0.15912289	      0.67260608	     -1.19965239	     65.90414081	    -32.80374429	    -18.76747028	     85.17980556	      1.48666806	     26.12215413	     -5.05815320	      0.00000000	     79.02851735	    -45.06673373	     -5.43790038	     84.82272447	      1.48043582	     26.34902743	     14.14058094	      0.00000000	    -15.75549107	      4.75210733	      1.96219422	     44.85112492	    -15.01784457	     44.85112492	     75.00103091	     44.99999962	      0.00000000	      0.00000000	     44.85112492	    -15.01784457	     44.85112492	     75.00103091	     44.99999962	      0.00000000	      0.00000000
      0.83500000	    -19.27701834	     -6.48873832	     -0.29287836	      0.15913828	      0.67061845	     -1.19967805	     66.06603370	    -33.02819175	    -18.53662877	     85.62935844	      1.49451424	     26.29436166	     -4.99681262	      0.00000000	     79.08007342	    -45.17838667	     -5.36414439	     85.24302368	      1.48777143	     26.56636437	     14.27220553	      0.00000000	    -16.09659322	      4.60729766	      1.89593179	     44.85299244	    -15.01749480	     44.85299244	     75.00100195	     44.99999966	      0.00000000	      0.00000000	     44.85299244	    -15.01749480	     44.85299244	     75.00100195	     44.99999966	      0.00000000	      0.00000000
